<svg width="32" height="32" viewBox="0 0 32 32" fill="none" xmlns="http://www.w3.org/2000/svg">
<path d="M27.2438 10.5386C27.961 12.0151 28.3803 13.6185 28.4779 15.2571C28.5755 16.8957 28.3493 18.5375 27.8124 20.0887C27.2754 21.64 26.4382 23.0702 25.3485 24.2979C24.2588 25.5256 22.938 26.5266 21.4614 27.2438C19.9849 27.961 18.3815 28.3803 16.7429 28.4779C15.1043 28.5755 13.4625 28.3493 11.9113 27.8124C10.36 27.2754 8.92977 26.4382 7.7021 25.3485C6.47444 24.2588 5.47342 22.938 4.75622 21.4614C4.03901 19.9849 3.61965 18.3815 3.5221 16.7429C3.42454 15.1043 3.65068 13.4625 4.18762 11.9113C4.72456 10.36 5.56178 8.92977 6.65148 7.7021C7.74117 6.47443 9.06201 5.47342 10.5386 4.75622C12.0151 4.03901 13.6185 3.61965 15.2571 3.5221C16.8957 3.42454 18.5375 3.65068 20.0887 4.18762C21.64 4.72456 23.0702 5.56178 24.2979 6.65148C25.5256 7.74117 26.5266 9.06201 27.2438 10.5386L27.2438 10.5386Z" stroke="#390081"/>
</svg>
