<svg width="32" height="32" viewBox="0 0 32 32" fill="none" xmlns="http://www.w3.org/2000/svg">
<path fill-rule="evenodd" clip-rule="evenodd" d="M15 5C14.4477 5 14 5.44772 14 6H18C18 5.44772 17.5523 5 17 5H15ZM15 3C13.3431 3 12 4.34315 12 6H5.5C4.94772 6 4.5 6.44772 4.5 7C4.5 7.55228 4.94772 8 5.5 8H7V24C7 25.6569 8.34315 27 10 27H22C23.6569 27 25 25.6569 25 24V8H26.5C27.0523 8 27.5 7.55228 27.5 7C27.5 6.44772 27.0523 6 26.5 6H20C20 4.34315 18.6569 3 17 3H15ZM9 9V24C9 24.5523 9.44772 25 10 25H22C22.5523 25 23 24.5523 23 24V9H9ZM12 11C11.4477 11 11 11.4477 11 12V22C11 22.5523 11.4477 23 12 23C12.5523 23 13 22.5523 13 22V12C13 11.4477 12.5523 11 12 11ZM15 12C15 11.4477 15.4477 11 16 11C16.5523 11 17 11.4477 17 12V22C17 22.5523 16.5523 23 16 23C15.4477 23 15 22.5523 15 22V12ZM20 11C19.4477 11 19 11.4477 19 12V22C19 22.5523 19.4477 23 20 23C20.5523 23 21 22.5523 21 22V12C21 11.4477 20.5523 11 20 11Z" fill="#390081"/>
</svg>
